<svg xmlns="http://www.w3.org/2000/svg" version="1.1" xmlns:xlink="http://www.w3.org/1999/xlink" xmlns:svgjs="http://svgjs.dev/svgjs" width="1000" height="148" viewBox="0 0 1000 148"><g transform="matrix(1,0,0,1,-0.6060606060606801,0.5055440442504135)"><svg viewBox="0 0 396 59" data-background-color="#ffffff" preserveAspectRatio="xMidYMid meet" height="148" width="1000" xmlns="http://www.w3.org/2000/svg" xmlns:xlink="http://www.w3.org/1999/xlink"><g id="tight-bounds" transform="matrix(1,0,0,1,0.24000000000003752,-0.20153278863941182)"><svg viewBox="0 0 395.5199999999999 59.403067238712204" height="59.403067238712204" width="395.5199999999999"><g><svg viewBox="0 0 395.5199999999999 59.403067238712204" height="59.403067238712204" width="395.5199999999999"><g><svg viewBox="0 0 395.5199999999999 59.403067238712204" height="59.403067238712204" width="395.5199999999999"><g id="textblocktransform"><svg viewBox="0 0 395.5199999999999 59.403067238712204" height="59.403067238712204" width="395.5199999999999" id="textblock"><g><svg viewBox="0 0 395.5199999999999 39.41589538885065" height="39.41589538885065" width="395.5199999999999"><g transform="matrix(1,0,0,1,0,0)"><svg width="395.5199999999999" viewBox="1.5 -35.599998474121094 362.3800048828125 36.19999694824219" height="39.41589538885065" data-palette-color="#3d9970"><g class="undefined-text-0" data-fill-palette-color="primary" id="text-0"><path d="M5.9 0L1.5 0 14.4-35 18.85-35 31.7 0 27.25 0 24.05-9 9.15-9 5.9 0ZM16.6-29.7L10.4-12.4 22.8-12.4 16.6-29.7ZM51.95 0.6L51.95 0.6Q47.05 0.6 43.35-1.68 39.65-3.95 37.6-8.03 35.55-12.1 35.55-17.45L35.55-17.45Q35.55-22.8 37.62-26.9 39.7-31 43.52-33.3 47.35-35.6 52.55-35.6L52.55-35.6Q58.45-35.6 62.37-32.75 66.3-29.9 67.45-24.9L67.45-24.9 62.6-24.9Q61.9-28.05 59.27-29.9 56.65-31.75 52.55-31.75L52.55-31.75Q48.7-31.75 45.85-30.03 43-28.3 41.42-25.1 39.85-21.9 39.85-17.45L39.85-17.45Q39.85-13 41.4-9.8 42.95-6.6 45.7-4.88 48.45-3.15 52.1-3.15L52.1-3.15Q57.7-3.15 60.55-6.43 63.4-9.7 63.8-15.4L63.8-15.4 53.7-15.4 53.7-18.7 68.1-18.7 68.1 0 64.25 0 63.9-5.75Q62-2.7 59.25-1.05 56.5 0.6 51.95 0.6ZM78.95 0L74.75 0 74.75-35 78.95-35 78.95 0ZM106.84 0L86.34 0 86.34-35 90.54-35 90.54-3.35 106.84-3.35 106.84 0ZM134.24 0L112.59 0 112.59-35 134.24-35 134.24-31.55 116.79-31.55 116.79-19.35 132.74-19.35 132.74-15.95 116.79-15.95 116.79-3.45 134.24-3.45 134.24 0Z" fill="#3d9970" data-fill-palette-color="primary"></path><path d="M142.14 0L137.94 0 137.94-35 142.14-35 142.14-19.55 160.29-19.55 160.29-35 164.49-35 164.49 0 160.29 0 160.29-16.1 142.14-16.1 142.14 0ZM174.09 0L169.69 0 182.59-35 187.04-35 199.89 0 195.44 0 192.24-9 177.34-9 174.09 0ZM184.79-29.7L178.59-12.4 190.99-12.4 184.79-29.7ZM225.59 0L205.09 0 205.09-35 209.29-35 209.29-3.35 225.59-3.35 225.59 0ZM252.98 0L231.33 0 231.33-35 252.98-35 252.98-31.55 235.53-31.55 235.53-19.35 251.48-19.35 251.48-15.95 235.53-15.95 235.53-3.45 252.98-3.45 252.98 0ZM271.43 0L266.73 0.05 257.13-35 261.63-35 269.18-4.95 277.78-35 282.43-35 290.78-4.95 298.43-35 302.93-35 293.13 0 288.33 0 279.98-28.9 271.43 0ZM320.78 0L316.58 0 316.58-13.3 305.18-35 309.93-35 318.68-17.3 327.43-35 332.13-35 320.78-13.3 320.78 0ZM341.03 0L336.83 0 336.83-35 341.03-35 359.68-6.95 359.68-35 363.88-35 363.88 0 359.68 0 341.03-28.05 341.03 0Z" fill="#233565" data-fill-palette-color="secondary"></path></g></svg></g></svg></g><g transform="matrix(1,0,0,1,0,48.721042308668956)"><svg viewBox="0 0 395.5199999999999 10.682024930043246" height="10.682024930043246" width="395.5199999999999"><g transform="matrix(1,0,0,1,0,0)"><svg width="395.5199999999999" viewBox="-12.050000190734863 -31.25 1179.2100830078125 31.850000381469727" height="10.682024930043246" data-palette-color="#233565"><path d="M12.05-2.4L11.65-0.15-9.5-2.4 12.05-2.4ZM12.85-7.25L12.5-5-8.65-7.25 12.85-7.25ZM12.4-12.05L12.85-9.8-8.35-12.05 12.4-12.05ZM11.45-16.85L11.9-14.6-9.3-16.85 11.45-16.85ZM-11.15-26.45L9.55-26.45 10-24.2-11.15-26.45ZM-10.2-21.65L10.5-21.65 10.95-19.4-10.2-21.65ZM8.65-31.25L9.1-29-12.05-31.25 8.65-31.25ZM10.15-31.25L20.65-31.25 21.3-20.25 21.65-20.25 26.25-31.25 36.75-31.25 24.15-8.5 22.7 0 13.2 0 14.65-8.5 10.15-31.25ZM58.15-26.95L58.15-26.95Q63.55-26.95 65.85-24.88 68.15-22.8 68.15-18.4L68.15-18.4Q68.15-16.25 67.6-13.2L67.6-13.2Q66.35-6 63.2-2.7 60.05 0.6 53.3 0.6L53.3 0.6Q48 0.6 45.75-1.48 43.5-3.55 43.5-7.9L43.5-7.9Q43.5-10.15 44.05-13.2L44.05-13.2Q45.3-20.4 48.4-23.68 51.5-26.95 58.15-26.95ZM51.8-7L54.75-7Q56.2-7 56.92-7.35 57.65-7.7 57.9-8.9L57.9-8.9 59.8-19.35 56.75-19.35Q55.35-19.35 54.57-19 53.8-18.65 53.65-17.5L53.65-17.5 51.8-7ZM22.35-12.05L42.3-12.05Q42.1-10.5 42.05-9.95L42.05-9.95 22.35-12.05ZM23.25-16.85L43.25-16.85 42.8-14.75 23.25-16.85ZM22.55-7.25L42-7.25Q42-6.45 42.2-5.15L42.2-5.15 22.55-7.25ZM25.25-21.65L45-21.65Q44.4-20.35 44.15-19.65L44.15-19.65 25.25-21.65ZM26.9-2.4L43.05-2.4Q43.65-1.2 44.35-0.55L44.35-0.55 26.9-2.4ZM31.95-26.45L49.35-26.45Q48.15-25.75 47.3-24.8L47.3-24.8 31.95-26.45ZM81.3-12.05L80.9-9.8 59.7-12.05 81.3-12.05ZM82.15-16.85L81.75-14.6 60.55-16.85 82.15-16.85ZM83-21.65L82.6-19.4 61.4-21.65 83-21.65ZM83.8-26.45L83.45-24.2 62.25-26.45 83.8-26.45ZM59.55-7.25L80.7-7.25 80.7-6.25Q80.7-5.4 80.75-5L80.75-5 59.55-7.25ZM82.65-0.15L82.65-0.15 61.45-2.4 81.2-2.4Q81.75-1 82.65-0.15ZM90.4-7L92.9-7Q94.25-7 94.77-7.33 95.3-7.65 95.5-8.9L95.5-8.9 98.65-26.45 107.05-26.45 104.45-11.55Q103.25-4.55 100.57-1.98 97.9 0.6 91.45 0.6L91.45 0.6Q86.3 0.6 84.25-0.93 82.2-2.45 82.2-6.25L82.2-6.25Q82.2-8.35 82.75-11.55L82.75-11.55 85.4-26.45 93.8-26.45 90.4-7ZM121.79-26.45L134.49-26.45Q141.79-26.45 141.79-19.85L141.79-19.85Q141.79-16.85 140.59-13.63 139.39-10.4 136.54-8.8L136.54-8.8 139.39 0 130.04 0 128.14-7.7 126.94-7.7 125.59 0 117.19 0 121.79-26.45ZM132.34-16.05L132.64-17.8Q132.64-17.85 132.69-18.3L132.69-18.3Q132.69-19.15 130.04-19.15L130.04-19.15 128.94-19.15 128.14-14.55 129.74-14.55Q132.04-14.55 132.34-16.05L132.34-16.05ZM115.94-2.4L115.54-0.15 94.34-2.4 115.94-2.4ZM117.64-12.05L117.24-9.8 96.04-12.05 117.64-12.05ZM118.49-16.85L118.09-14.6 96.89-16.85 118.49-16.85ZM119.34-21.65L118.94-19.4 97.74-21.65 119.34-21.65ZM120.14-26.45L119.79-24.2 98.59-26.45 120.14-26.45ZM116.79-7.25L116.39-5 95.19-7.25 116.79-7.25ZM177.59-6.2L177.59-6.2 172.74-6.2 171.64 0 163.24 0 167.84-26.45 180.54-26.45Q187.79-26.45 187.79-19.6L187.79-19.6Q187.79-16.5 186.89-13.9 185.99-11.3 184.94-9.8 183.89-8.3 181.96-7.25 180.04-6.2 177.59-6.2ZM178.09-14.4L178.69-17.8Q178.69-17.85 178.74-18.1L178.74-18.1Q178.74-19.15 176.59-19.15L176.59-19.15 174.99-19.15 173.94-12.95 175.49-12.95Q176.64-12.95 177.29-13.23 177.94-13.5 178.09-14.4L178.09-14.4ZM161.99-2.4L161.59-0.15 140.39-2.4 161.99-2.4ZM163.69-12.05L163.29-9.8 142.09-12.05 163.69-12.05ZM164.54-16.85L164.14-14.6 142.94-16.85 164.54-16.85ZM165.39-21.65L164.99-19.4 143.79-21.65 165.39-21.65ZM166.19-26.45L165.84-24.2 144.64-26.45 166.19-26.45ZM162.84-7.25L162.44-5 141.24-7.25 162.84-7.25ZM221.34 0L212.59 0 212.39-4.05 206.09-4.05 204.54 0 195.89 0 206.99-26.45 219.39-26.45 221.34 0ZM208.74-11.2L212.39-11.2 212.39-18.8 211.69-18.8 208.74-11.2ZM195.24-2.4L194.29-0.2 173.79-2.4 195.24-2.4ZM197.29-7.25L196.34-5.05 175.84-7.25 197.29-7.25ZM199.29-12.05L198.39-9.85 177.89-12.05 199.29-12.05ZM201.34-16.85L200.39-14.65 179.94-16.85 201.34-16.85ZM203.34-21.65L202.44-19.45 181.99-21.65 203.34-21.65ZM205.34-26.45L204.44-24.3 184.04-26.45 205.34-26.45ZM238.98-26.45L251.68-26.45Q258.98-26.45 258.98-19.85L258.98-19.85Q258.98-16.85 257.78-13.63 256.58-10.4 253.73-8.8L253.73-8.8 256.58 0 247.23 0 245.33-7.7 244.13-7.7 242.78 0 234.38 0 238.98-26.45ZM249.53-16.05L249.83-17.8Q249.83-17.85 249.88-18.3L249.88-18.3Q249.88-19.15 247.23-19.15L247.23-19.15 246.13-19.15 245.33-14.55 246.93-14.55Q249.23-14.55 249.53-16.05L249.53-16.05ZM233.13-2.4L232.73-0.15 211.53-2.4 233.13-2.4ZM234.83-12.05L234.43-9.8 213.23-12.05 234.83-12.05ZM235.68-16.85L235.28-14.6 214.08-16.85 235.68-16.85ZM236.53-21.65L236.13-19.4 214.93-21.65 236.53-21.65ZM237.33-26.45L236.98-24.2 215.78-26.45 237.33-26.45ZM233.98-7.25L233.58-5 212.38-7.25 233.98-7.25ZM292.93-26.45L291.58-18.95 286.18-18.95 282.88 0 274.08 0 277.38-18.95 271.83-18.95 273.18-26.45 292.93-26.45ZM272.98-2.4L272.58-0.15 251.38-2.4 272.98-2.4ZM274.68-12.05L274.28-9.8 253.08-12.05 274.68-12.05ZM275.53-16.85L275.13-14.6 253.93-16.85 275.53-16.85ZM270.73-21.65L270.33-19.4 249.13-21.65 270.73-21.65ZM271.53-26.45L271.18-24.2 249.98-26.45 271.53-26.45ZM273.83-7.25L273.43-5 252.23-7.25 273.83-7.25ZM323.88 0L317.08 0 311.93-9.9 311.73-9.9 309.98 0 301.58 0 306.18-26.45 312.98-26.45 318.18-16.6 318.48-16.6 320.18-26.45 328.53-26.45 323.88 0ZM300.33-2.4L299.93-0.15 278.73-2.4 300.33-2.4ZM302.03-12.05L301.63-9.8 280.43-12.05 302.03-12.05ZM302.88-16.85L302.48-14.6 281.28-16.85 302.88-16.85ZM303.73-21.65L303.33-19.4 282.13-21.65 303.73-21.65ZM304.53-26.45L304.18-24.2 282.98-26.45 304.53-26.45ZM301.18-7.25L300.78-5 279.58-7.25 301.18-7.25ZM358.63-15.55L357.77-10.75 350.32-10.75 349.72-7.35 358.97-7.35 357.68 0 340.02 0 344.63-26.45 362.22-26.45 359.88-18.95 351.72-18.95 351.13-15.55 358.63-15.55ZM338.77-2.4L338.38-0.15 317.18-2.4 338.77-2.4ZM340.47-12.05L340.07-9.8 318.88-12.05 340.47-12.05ZM341.32-16.85L340.93-14.6 319.72-16.85 341.32-16.85ZM342.18-21.65L341.77-19.4 320.57-21.65 342.18-21.65ZM342.97-26.45L342.63-24.2 321.43-26.45 342.97-26.45ZM339.63-7.25L339.22-5 318.02-7.25 339.63-7.25ZM377.42-26.45L390.12-26.45Q397.42-26.45 397.42-19.85L397.42-19.85Q397.42-16.85 396.22-13.63 395.02-10.4 392.17-8.8L392.17-8.8 395.02 0 385.67 0 383.77-7.7 382.57-7.7 381.22 0 372.82 0 377.42-26.45ZM387.97-16.05L388.27-17.8Q388.27-17.85 388.32-18.3L388.32-18.3Q388.32-19.15 385.67-19.15L385.67-19.15 384.57-19.15 383.77-14.55 385.37-14.55Q387.67-14.55 387.97-16.05L387.97-16.05ZM371.57-2.4L371.17-0.15 349.97-2.4 371.57-2.4ZM373.27-12.05L372.87-9.8 351.67-12.05 373.27-12.05ZM374.12-16.85L373.72-14.6 352.52-16.85 374.12-16.85ZM374.97-21.65L374.57-19.4 353.37-21.65 374.97-21.65ZM375.77-26.45L375.42-24.2 354.22-26.45 375.77-26.45ZM372.42-7.25L372.02-5 350.82-7.25 372.42-7.25ZM436.57-15.55L435.57-9.6 428.97-9.6 427.27 0 418.87 0 423.47-26.45 440.12-26.45 437.82-18.95 430.57-18.95 429.97-15.55 436.57-15.55ZM417.67-2.4L417.27-0.15 396.07-2.4 417.67-2.4ZM419.37-12.05L418.97-9.8 397.77-12.05 419.37-12.05ZM420.22-16.85L419.82-14.6 398.62-16.85 420.22-16.85ZM421.07-21.65L420.67-19.4 399.47-21.65 421.07-21.65ZM421.87-26.45L421.52-24.2 400.32-26.45 421.87-26.45ZM418.52-7.25L418.12-5 396.92-7.25 418.52-7.25ZM463.67-26.95L463.67-26.95Q469.07-26.95 471.37-24.88 473.67-22.8 473.67-18.4L473.67-18.4Q473.67-16.25 473.12-13.2L473.12-13.2Q471.87-6 468.72-2.7 465.57 0.6 458.82 0.6L458.82 0.6Q453.52 0.6 451.27-1.48 449.02-3.55 449.02-7.9L449.02-7.9Q449.02-10.15 449.57-13.2L449.57-13.2Q450.82-20.4 453.92-23.68 457.02-26.95 463.67-26.95ZM457.32-7L460.27-7Q461.72-7 462.44-7.35 463.17-7.7 463.42-8.9L463.42-8.9 465.32-19.35 462.27-19.35Q460.87-19.35 460.09-19 459.32-18.65 459.17-17.5L459.17-17.5 457.32-7ZM427.87-12.05L447.82-12.05Q447.62-10.5 447.57-9.95L447.57-9.95 427.87-12.05ZM428.77-16.85L448.77-16.85 448.32-14.75 428.77-16.85ZM428.07-7.25L447.52-7.25Q447.52-6.45 447.72-5.15L447.72-5.15 428.07-7.25ZM430.77-21.65L450.52-21.65Q449.92-20.35 449.67-19.65L449.67-19.65 430.77-21.65ZM432.42-2.4L448.57-2.4Q449.17-1.2 449.87-0.55L449.87-0.55 432.42-2.4ZM437.47-26.45L454.87-26.45Q453.67-25.75 452.82-24.8L452.82-24.8 437.47-26.45ZM490.96-26.45L503.66-26.45Q510.96-26.45 510.96-19.85L510.96-19.85Q510.96-16.85 509.76-13.63 508.56-10.4 505.71-8.8L505.71-8.8 508.56 0 499.21 0 497.31-7.7 496.11-7.7 494.76 0 486.36 0 490.96-26.45ZM501.51-16.05L501.81-17.8Q501.81-17.85 501.86-18.3L501.86-18.3Q501.86-19.15 499.21-19.15L499.21-19.15 498.11-19.15 497.31-14.55 498.91-14.55Q501.21-14.55 501.51-16.05L501.51-16.05ZM485.11-2.4L484.71-0.15 463.51-2.4 485.11-2.4ZM486.81-12.05L486.41-9.8 465.21-12.05 486.81-12.05ZM487.66-16.85L487.26-14.6 466.06-16.85 487.66-16.85ZM488.51-21.65L488.11-19.4 466.91-21.65 488.51-21.65ZM489.31-26.45L488.96-24.2 467.76-26.45 489.31-26.45ZM485.96-7.25L485.56-5 464.36-7.25 485.96-7.25ZM557.26 0L548.51 0 548.31-4.05 542.01-4.05 540.46 0 531.81 0 542.91-26.45 555.31-26.45 557.26 0ZM544.66-11.2L548.31-11.2 548.31-18.8 547.61-18.8 544.66-11.2ZM531.16-2.4L530.21-0.2 509.71-2.4 531.16-2.4ZM533.21-7.25L532.26-5.05 511.76-7.25 533.21-7.25ZM535.21-12.05L534.31-9.85 513.81-12.05 535.21-12.05ZM537.26-16.85L536.31-14.65 515.86-16.85 537.26-16.85ZM539.26-21.65L538.36-19.45 517.91-21.65 539.26-21.65ZM541.26-26.45L540.36-24.3 519.96-26.45 541.26-26.45ZM592.85-15.55L590.35-1.4Q585.25 0.6 579.95 0.6 574.65 0.6 572.4-1.48 570.15-3.55 570.15-7.9L570.15-7.9Q570.15-10.05 570.85-14.05 571.55-18.05 573-20.9L573-20.9Q576.15-26.95 585.75-26.95L585.75-26.95Q591.35-26.95 593.55-25.85L593.55-25.85 591-18.9Q587.85-19.6 585.33-19.6 582.8-19.6 581.75-19.25 580.7-18.9 580.5-17.9L580.5-17.9 578.4-6.4 580.7-6.4Q581.95-6.4 582.63-6.68 583.3-6.95 583.45-7.9L583.45-7.9 583.8-9.85 581.75-9.85 582.75-15.55 592.85-15.55ZM549-12.05L568.95-12.05Q568.75-10.5 568.7-9.95L568.7-9.95 549-12.05ZM549.9-16.85L569.9-16.85 569.45-14.75 549.9-16.85ZM549.2-7.25L568.65-7.25Q568.65-6.45 568.85-5.15L568.85-5.15 549.2-7.25ZM551.9-21.65L571.65-21.65Q571.05-20.35 570.8-19.65L570.8-19.65 551.9-21.65ZM553.55-2.4L569.7-2.4Q570.3-1.2 571-0.55L571-0.55 553.55-2.4ZM558.6-26.45L576-26.45Q574.8-25.75 573.95-24.8L573.95-24.8 558.6-26.45ZM613.85 0L605.1 0 609.7-26.45 618.5-26.45 613.85 0ZM603.85-2.4L603.45-0.15 582.25-2.4 603.85-2.4ZM605.55-12.05L605.15-9.8 583.95-12.05 605.55-12.05ZM606.4-16.85L606-14.6 584.8-16.85 606.4-16.85ZM607.25-21.65L606.85-19.4 585.65-21.65 607.25-21.65ZM608.05-26.45L607.7-24.2 586.5-26.45 608.05-26.45ZM604.7-7.25L604.3-5 583.1-7.25 604.7-7.25ZM647.1-7.35L645.8 0 629.55 0 634.15-26.45 642.95-26.45 639.6-7.35 647.1-7.35ZM628.3-2.4L627.9-0.15 606.7-2.4 628.3-2.4ZM630-12.05L629.6-9.8 608.4-12.05 630-12.05ZM630.85-16.85L630.45-14.6 609.25-16.85 630.85-16.85ZM631.7-21.65L631.3-19.4 610.1-21.65 631.7-21.65ZM632.5-26.45L632.15-24.2 610.95-26.45 632.5-26.45ZM629.15-7.25L628.75-5 607.55-7.25 629.15-7.25ZM676.5-15.55L675.65-10.75 668.2-10.75 667.6-7.35 676.85-7.35 675.55 0 657.9 0 662.5-26.45 680.1-26.45 677.75-18.95 669.6-18.95 669-15.55 676.5-15.55ZM656.65-2.4L656.25-0.15 635.05-2.4 656.65-2.4ZM658.35-12.05L657.95-9.8 636.75-12.05 658.35-12.05ZM659.2-16.85L658.8-14.6 637.6-16.85 659.2-16.85ZM660.05-21.65L659.65-19.4 638.45-21.65 660.05-21.65ZM660.85-26.45L660.5-24.2 639.3-26.45 660.85-26.45ZM657.5-7.25L657.1-5 635.9-7.25 657.5-7.25ZM723.19-26.45L721.84-18.95 716.44-18.95 713.14 0 704.34 0 707.64-18.95 702.09-18.95 703.44-26.45 723.19-26.45ZM703.24-2.4L702.84-0.15 681.64-2.4 703.24-2.4ZM704.94-12.05L704.54-9.8 683.34-12.05 704.94-12.05ZM705.79-16.85L705.39-14.6 684.19-16.85 705.79-16.85ZM700.99-21.65L700.59-19.4 679.39-21.65 700.99-21.65ZM701.79-26.45L701.44-24.2 680.24-26.45 701.79-26.45ZM704.09-7.25L703.69-5 682.49-7.25 704.09-7.25ZM750.44-15.55L749.59-10.75 742.14-10.75 741.54-7.35 750.79-7.35 749.49 0 731.84 0 736.44-26.45 754.04-26.45 751.69-18.95 743.54-18.95 742.94-15.55 750.44-15.55ZM730.59-2.4L730.19-0.15 708.99-2.4 730.59-2.4ZM732.29-12.05L731.89-9.8 710.69-12.05 732.29-12.05ZM733.14-16.85L732.74-14.6 711.54-16.85 733.14-16.85ZM733.99-21.65L733.59-19.4 712.39-21.65 733.99-21.65ZM734.79-26.45L734.44-24.2 713.24-26.45 734.79-26.45ZM731.44-7.25L731.04-5 709.84-7.25 731.44-7.25ZM763.44-0.15L742.54-2.4 764.14-2.4 763.44-0.15ZM746.39-21.65L767.94-21.65Q767.64-20.85 767.29-19.4L767.29-19.4 746.39-21.65ZM766.69-15L766.69-15 766.69-14.6 745.49-16.85 766.79-16.85Q766.69-15.65 766.69-15ZM765.74-7.25L765.04-5.05 744.19-7.25 765.74-7.25ZM749.84-26.45L771.39-26.45Q770.04-25.45 769.34-24.35L769.34-24.35 749.84-26.45ZM747.44-12.05L767.14-12.05Q767.59-10.75 768.59-9.8L768.59-9.8 747.44-12.05ZM789.49-25.9L787.09-18.6Q783.69-19.4 781.29-19.4 778.89-19.4 777.74-19.25L777.74-19.25 777.49-17.8 779.99-17.5Q788.04-16.45 788.04-10.85L788.04-10.85Q788.04-10.2 787.74-8.43 787.44-6.65 786.74-5 786.04-3.35 784.96-2.33 783.89-1.3 782.86-0.68 781.84-0.05 780.24 0.2L780.24 0.2Q777.74 0.6 773.56 0.6 769.39 0.6 765.14-0.55L765.14-0.55 767.59-7.95Q771.49-6.85 774.41-6.85 777.34-6.85 778.54-7L778.54-7 778.79-8.6 775.64-8.95Q771.59-9.4 769.89-10.85 768.19-12.3 768.19-15L768.19-15Q768.19-16 768.44-17.5L768.44-17.5Q769.44-22.85 772.04-24.9 774.64-26.95 779.96-26.95 785.29-26.95 789.49-25.9L789.49-25.9ZM823.03-26.45L821.68-18.95 816.28-18.95 812.98 0 804.18 0 807.48-18.95 801.93-18.95 803.28-26.45 823.03-26.45ZM803.08-2.4L802.68-0.15 781.48-2.4 803.08-2.4ZM804.78-12.05L804.38-9.8 783.18-12.05 804.78-12.05ZM805.63-16.85L805.23-14.6 784.03-16.85 805.63-16.85ZM800.83-21.65L800.43-19.4 779.23-21.65 800.83-21.65ZM801.63-26.45L801.28-24.2 780.08-26.45 801.63-26.45ZM803.93-7.25L803.53-5 782.33-7.25 803.93-7.25ZM840.43 0L831.68 0 836.28-26.45 845.08-26.45 840.43 0ZM830.43-2.4L830.03-0.15 808.83-2.4 830.43-2.4ZM832.13-12.05L831.73-9.8 810.53-12.05 832.13-12.05ZM832.98-16.85L832.58-14.6 811.38-16.85 832.98-16.85ZM833.83-21.65L833.43-19.4 812.23-21.65 833.83-21.65ZM834.63-26.45L834.28-24.2 813.08-26.45 834.63-26.45ZM831.28-7.25L830.88-5 809.68-7.25 831.28-7.25ZM878.43 0L871.63 0 866.48-9.9 866.28-9.9 864.53 0 856.13 0 860.73-26.45 867.53-26.45 872.73-16.6 873.03-16.6 874.73-26.45 883.08-26.45 878.43 0ZM854.88-2.4L854.48-0.15 833.28-2.4 854.88-2.4ZM856.58-12.05L856.18-9.8 834.98-12.05 856.58-12.05ZM857.43-16.85L857.03-14.6 835.83-16.85 857.43-16.85ZM858.28-21.65L857.88-19.4 836.68-21.65 858.28-21.65ZM859.08-26.45L858.73-24.2 837.53-26.45 859.08-26.45ZM855.73-7.25L855.33-5 834.13-7.25 855.73-7.25ZM917.13-15.55L914.63-1.4Q909.53 0.6 904.23 0.6 898.93 0.6 896.68-1.48 894.43-3.55 894.43-7.9L894.43-7.9Q894.43-10.05 895.13-14.05 895.83-18.05 897.28-20.9L897.28-20.9Q900.43-26.95 910.03-26.95L910.03-26.95Q915.63-26.95 917.83-25.85L917.83-25.85 915.28-18.9Q912.13-19.6 909.6-19.6 907.08-19.6 906.03-19.25 904.98-18.9 904.78-17.9L904.78-17.9 902.68-6.4 904.98-6.4Q906.23-6.4 906.9-6.68 907.58-6.95 907.73-7.9L907.73-7.9 908.08-9.85 906.03-9.85 907.03-15.55 917.13-15.55ZM873.28-12.05L893.23-12.05Q893.03-10.5 892.98-9.95L892.98-9.95 873.28-12.05ZM874.18-16.85L894.18-16.85 893.73-14.75 874.18-16.85ZM873.48-7.25L892.93-7.25Q892.93-6.45 893.13-5.15L893.13-5.15 873.48-7.25ZM876.18-21.65L895.93-21.65Q895.33-20.35 895.08-19.65L895.08-19.65 876.18-21.65ZM877.83-2.4L893.98-2.4Q894.58-1.2 895.28-0.55L895.28-0.55 877.83-2.4ZM882.88-26.45L900.28-26.45Q899.08-25.75 898.23-24.8L898.23-24.8 882.88-26.45ZM938.17-0.15L917.27-2.4 938.87-2.4 938.17-0.15ZM921.12-21.65L942.67-21.65Q942.37-20.85 942.02-19.4L942.02-19.4 921.12-21.65ZM941.42-15L941.42-15 941.42-14.6 920.22-16.85 941.52-16.85Q941.42-15.65 941.42-15ZM940.47-7.25L939.77-5.05 918.92-7.25 940.47-7.25ZM924.57-26.45L946.12-26.45Q944.77-25.45 944.07-24.35L944.07-24.35 924.57-26.45ZM922.17-12.05L941.87-12.05Q942.32-10.75 943.32-9.8L943.32-9.8 922.17-12.05ZM964.22-25.9L961.82-18.6Q958.42-19.4 956.02-19.4 953.62-19.4 952.47-19.25L952.47-19.25 952.22-17.8 954.72-17.5Q962.77-16.45 962.77-10.85L962.77-10.85Q962.77-10.2 962.47-8.43 962.17-6.65 961.47-5 960.77-3.35 959.7-2.33 958.62-1.3 957.6-0.68 956.57-0.05 954.97 0.2L954.97 0.2Q952.47 0.6 948.3 0.6 944.12 0.6 939.87-0.55L939.87-0.55 942.32-7.95Q946.22-6.85 949.15-6.85 952.07-6.85 953.27-7L953.27-7 953.52-8.6 950.37-8.95Q946.32-9.4 944.62-10.85 942.92-12.3 942.92-15L942.92-15Q942.92-16 943.17-17.5L943.17-17.5Q944.17-22.85 946.77-24.9 949.37-26.95 954.7-26.95 960.02-26.95 964.22-25.9L964.22-25.9ZM975.72-12.05L975.32-9.8 954.12-12.05 975.72-12.05ZM976.57-16.85L976.17-14.6 954.97-16.85 976.57-16.85ZM977.42-21.65L977.02-19.4 955.82-21.65 977.42-21.65ZM978.22-26.45L977.87-24.2 956.67-26.45 978.22-26.45ZM953.97-7.25L975.12-7.25 975.12-6.25Q975.12-5.4 975.17-5L975.17-5 953.97-7.25ZM977.07-0.15L977.07-0.15 955.87-2.4 975.62-2.4Q976.17-1 977.07-0.15ZM984.82-7L987.32-7Q988.67-7 989.19-7.33 989.72-7.65 989.92-8.9L989.92-8.9 993.07-26.45 1001.47-26.45 998.87-11.55Q997.67-4.55 994.99-1.98 992.32 0.6 985.87 0.6L985.87 0.6Q980.72 0.6 978.67-0.93 976.62-2.45 976.62-6.25L976.62-6.25Q976.62-8.35 977.17-11.55L977.17-11.55 979.82-26.45 988.22-26.45 984.82-7ZM1029.17-8.05L1028.37-0.55Q1025.67 0.6 1020.87 0.6 1016.07 0.6 1013.79-1.43 1011.52-3.45 1011.52-7.8L1011.52-7.8Q1011.52-9.75 1012.12-13.2L1012.12-13.2Q1013.37-20.45 1016.44-23.7 1019.52-26.95 1026.27-26.95L1026.27-26.95Q1031.12-26.95 1032.92-25.85L1032.92-25.85 1030.37-18.9Q1027.87-19.6 1025.82-19.6 1023.77-19.6 1022.94-19.25 1022.12-18.9 1021.92-17.9L1021.92-17.9 1019.97-7.2Q1021.02-6.95 1023.59-6.95 1026.17-6.95 1029.17-8.05L1029.17-8.05ZM990.42-12.05L1010.37-12.05Q1010.17-10.5 1010.12-9.95L1010.12-9.95 990.42-12.05ZM991.32-16.85L1011.32-16.85 1010.87-14.75 991.32-16.85ZM990.62-7.25L1010.07-7.25Q1010.07-6.45 1010.27-5.15L1010.27-5.15 990.62-7.25ZM993.32-21.65L1013.07-21.65Q1012.47-20.35 1012.22-19.65L1012.22-19.65 993.32-21.65ZM994.97-2.4L1011.12-2.4Q1011.72-1.2 1012.42-0.55L1012.42-0.55 994.97-2.4ZM1000.02-26.45L1017.42-26.45Q1016.22-25.75 1015.37-24.8L1015.37-24.8 1000.02-26.45ZM1060.16-8.05L1059.36-0.55Q1056.66 0.6 1051.86 0.6 1047.06 0.6 1044.79-1.43 1042.51-3.45 1042.51-7.8L1042.51-7.8Q1042.51-9.75 1043.11-13.2L1043.11-13.2Q1044.36-20.45 1047.44-23.7 1050.51-26.95 1057.26-26.95L1057.26-26.95Q1062.11-26.95 1063.91-25.85L1063.91-25.85 1061.36-18.9Q1058.86-19.6 1056.81-19.6 1054.76-19.6 1053.94-19.25 1053.11-18.9 1052.91-17.9L1052.91-17.9 1050.96-7.2Q1052.01-6.95 1054.59-6.95 1057.16-6.95 1060.16-8.05L1060.16-8.05ZM1021.41-12.05L1041.36-12.05Q1041.16-10.5 1041.11-9.95L1041.11-9.95 1021.41-12.05ZM1022.31-16.85L1042.31-16.85 1041.86-14.75 1022.31-16.85ZM1021.61-7.25L1041.06-7.25Q1041.06-6.45 1041.26-5.15L1041.26-5.15 1021.61-7.25ZM1024.31-21.65L1044.06-21.65Q1043.46-20.35 1043.21-19.65L1043.21-19.65 1024.31-21.65ZM1025.96-2.4L1042.11-2.4Q1042.71-1.2 1043.41-0.55L1043.41-0.55 1025.96-2.4ZM1031.01-26.45L1048.41-26.45Q1047.21-25.75 1046.36-24.8L1046.36-24.8 1031.01-26.45ZM1092.21-15.55L1091.36-10.75 1083.91-10.75 1083.31-7.35 1092.56-7.35 1091.26 0 1073.61 0 1078.21-26.45 1095.81-26.45 1093.46-18.95 1085.31-18.95 1084.71-15.55 1092.21-15.55ZM1072.36-2.4L1071.96-0.15 1050.76-2.4 1072.36-2.4ZM1074.06-12.05L1073.66-9.8 1052.46-12.05 1074.06-12.05ZM1074.91-16.85L1074.51-14.6 1053.31-16.85 1074.91-16.85ZM1075.76-21.65L1075.36-19.4 1054.16-21.65 1075.76-21.65ZM1076.56-26.45L1076.21-24.2 1055.01-26.45 1076.56-26.45ZM1073.21-7.25L1072.81-5 1051.61-7.25 1073.21-7.25ZM1105.21-0.15L1084.31-2.4 1105.91-2.4 1105.21-0.15ZM1088.16-21.65L1109.71-21.65Q1109.41-20.85 1109.06-19.4L1109.06-19.4 1088.16-21.65ZM1108.46-15L1108.46-15 1108.46-14.6 1087.26-16.85 1108.56-16.85Q1108.46-15.65 1108.46-15ZM1107.51-7.25L1106.81-5.05 1085.96-7.25 1107.51-7.25ZM1091.61-26.45L1113.16-26.45Q1111.81-25.45 1111.11-24.35L1111.11-24.35 1091.61-26.45ZM1089.21-12.05L1108.91-12.05Q1109.36-10.75 1110.36-9.8L1110.36-9.8 1089.21-12.05ZM1131.26-25.9L1128.86-18.6Q1125.46-19.4 1123.06-19.4 1120.66-19.4 1119.51-19.25L1119.51-19.25 1119.26-17.8 1121.76-17.5Q1129.81-16.45 1129.81-10.85L1129.81-10.85Q1129.81-10.2 1129.51-8.43 1129.21-6.65 1128.51-5 1127.81-3.35 1126.73-2.33 1125.66-1.3 1124.63-0.68 1123.61-0.05 1122.01 0.2L1122.01 0.2Q1119.51 0.6 1115.33 0.6 1111.16 0.6 1106.91-0.55L1106.91-0.55 1109.36-7.95Q1113.26-6.85 1116.18-6.85 1119.11-6.85 1120.31-7L1120.31-7 1120.56-8.6 1117.41-8.95Q1113.36-9.4 1111.66-10.85 1109.96-12.3 1109.96-15L1109.96-15Q1109.96-16 1110.21-17.5L1110.21-17.5Q1111.21-22.85 1113.81-24.9 1116.41-26.95 1121.73-26.95 1127.06-26.95 1131.26-25.9L1131.26-25.9ZM1141.11-0.15L1120.21-2.4 1141.81-2.4 1141.11-0.15ZM1124.06-21.65L1145.61-21.65Q1145.31-20.85 1144.96-19.4L1144.96-19.4 1124.06-21.65ZM1144.36-15L1144.36-15 1144.36-14.6 1123.16-16.85 1144.46-16.85Q1144.36-15.65 1144.36-15ZM1143.41-7.25L1142.71-5.05 1121.86-7.25 1143.41-7.25ZM1127.51-26.45L1149.06-26.45Q1147.71-25.45 1147.01-24.35L1147.01-24.35 1127.51-26.45ZM1125.11-12.05L1144.81-12.05Q1145.26-10.75 1146.26-9.8L1146.26-9.8 1125.11-12.05ZM1167.16-25.9L1164.76-18.6Q1161.36-19.4 1158.96-19.4 1156.56-19.4 1155.41-19.25L1155.41-19.25 1155.16-17.8 1157.66-17.5Q1165.71-16.45 1165.71-10.85L1165.71-10.85Q1165.71-10.2 1165.41-8.43 1165.11-6.65 1164.41-5 1163.71-3.35 1162.63-2.33 1161.56-1.3 1160.53-0.68 1159.51-0.05 1157.91 0.2L1157.91 0.2Q1155.41 0.6 1151.23 0.6 1147.06 0.6 1142.81-0.55L1142.81-0.55 1145.26-7.95Q1149.16-6.85 1152.08-6.85 1155.01-6.85 1156.21-7L1156.21-7 1156.46-8.6 1153.31-8.95Q1149.26-9.4 1147.56-10.85 1145.86-12.3 1145.86-15L1145.86-15Q1145.86-16 1146.11-17.5L1146.11-17.5Q1147.11-22.85 1149.71-24.9 1152.31-26.95 1157.63-26.95 1162.96-26.95 1167.16-25.9L1167.16-25.9Z" opacity="1" transform="matrix(1,0,0,1,0,0)" fill="#233565" class="undefined-text-1" data-fill-palette-color="secondary" id="text-1"></path></svg></g></svg></g></svg></g></svg></g><g></g></svg></g><defs></defs></svg><rect width="395.5199999999999" height="59.403067238712204" fill="none" stroke="none" visibility="hidden"></rect></g></svg></g></svg>